# xmcd
#
# Track frame offsets: 
#        150
#        12740
#        25480
#        37472
#        48050
#        62085
#        72600
#        83097
#        95110
#        105212
#        117252
#        127805
#        136985
#        147647
#        157210
#        168925
#        181257
#        190927
#        200565
#        212920
#        225912
#        235210
#        245875
#        257730
#        270922
#        278242
#        291590
#        302757
#        311377
#        321427
#
# Disc length: 4456 seconds
#
# Revision: 1
# Processed by: cddbd v1.5.2PL0 Copyright (c) Steve Scherf et al.
# Submitted via: ExactAudioCopy v0.99pb3
#
DISCID=cb11661e
DTITLE=Various Artist - Bump Jump Jive Vol. 6
DYEAR=1900
DGENRE=Rhytm and Blues
TTITLE0=Fluffy Hunter - My Natch'l Man
TTITLE1=Jimmy Rogers - Rock This House
TTITLE2=Big Joe Turner - The Chicken and The Hawk
TTITLE3=Tini Williams and The Skyliners - I Can't Sleep
TTITLE4=Wynonie Harris - The Deacon Don't Like It
TTITLE5=Jimmy Brown - Hello
TTITLE6=Edna McGriff - I Love You
TTITLE7=Ruth and Jimmy Brown - Hey Pretty Baby
TTITLE8=The Drivers - Smooth Slow and Easy
TTITLE9=Bullmoose Jackson - Nosey Joe
TTITLE10=Big Walter and His Rock Thunderbirds - Pack, Fair and Square
TTITLE11=Jumping Jaguars - Shut The Door Baby
TTITLE12=Ella Johnson - 'Til My Baby Come Back
TTITLE13=Du-Roppers - Honey Bunch
TTITLE14=Faye Adams - I've Gotta Rock This House
TTITLE15=Ruth Brown - Bye Bye Joung Men
TTITLE16=Memphis Slim - We´re Gonna Rock This House
TTITLE17=Shery Crowley - It Ain't To Play With
TTITLE18=Little Esther - Looking For A Man
TTITLE19=Tommy Brown - Double Faced Deacon
TTITLE20=Icky Renrut - Hey Hey
TTITLE21=The Honey Jumpers - Hot Banana
TTITLE22=Little Esther - Mainliner
TTITLE23=Wynonie Harris - Keep A Talking
TTITLE24=Baby Washington - Knock Yourself Out
TTITLE25=Dorothy Ellis - Drill, Daddy Drill
TTITLE26=The Sharps - Lock Up My Heart
TTITLE27=Little Miss Jessie - My Baby's Gone
TTITLE28=Mickey and Sylvia - Rise Sally Rise
TTITLE29=Du-Roppers - Can't Do Sixty No More
EXTD=
EXTT0=
EXTT1=
EXTT2=
EXTT3=
EXTT4=
EXTT5=
EXTT6=
EXTT7=
EXTT8=
EXTT9=
EXTT10=
EXTT11=
EXTT12=
EXTT13=
EXTT14=
EXTT15=
EXTT16=
EXTT17=
EXTT18=
EXTT19=
EXTT20=
EXTT21=
EXTT22=
EXTT23=
EXTT24=
EXTT25=
EXTT26=
EXTT27=
EXTT28=
EXTT29=
PLAYORDER=
